<?xml version="1.0" encoding="UTF-8" standalone="no"?>
<svg
   xmlns:dc="http://purl.org/dc/elements/1.1/"
   xmlns:cc="http://creativecommons.org/ns#"
   xmlns:rdf="http://www.w3.org/1999/02/22-rdf-syntax-ns#"
   xmlns:svg="http://www.w3.org/2000/svg"
   xmlns="http://www.w3.org/2000/svg"
   xmlns:sodipodi="http://sodipodi.sourceforge.net/DTD/sodipodi-0.dtd"
   xmlns:inkscape="http://www.inkscape.org/namespaces/inkscape"
   width="349"
   height="50"
   viewBox="732 401 349 50"
   version="1.1"
   id="svg3743"
   sodipodi:docname="fhnw_logo_white.svg"
   inkscape:version="0.92.3 (2405546, 2018-03-11)">
  <metadata
     id="metadata3749">
    <rdf:RDF>
      <cc:Work
         rdf:about="">
        <dc:format>image/svg+xml</dc:format>
        <dc:type
           rdf:resource="http://purl.org/dc/dcmitype/StillImage" />
        <dc:title></dc:title>
      </cc:Work>
    </rdf:RDF>
  </metadata>
  <defs
     id="defs3747" />
  <sodipodi:namedview
     pagecolor="#ffffff"
     bordercolor="#666666"
     borderopacity="1"
     objecttolerance="10"
     gridtolerance="10"
     guidetolerance="10"
     inkscape:pageopacity="0"
     inkscape:pageshadow="2"
     inkscape:window-width="1920"
     inkscape:window-height="1158"
     id="namedview3745"
     showgrid="false"
     inkscape:snap-page="false"
     inkscape:pagecheckerboard="true"
     inkscape:zoom="4.3696275"
     inkscape:cx="171.41049"
     inkscape:cy="25"
     inkscape:window-x="0"
     inkscape:window-y="25"
     inkscape:window-maximized="1"
     inkscape:current-layer="svg3743" />
  <desc
     id="desc3732">FHNW Logo English</desc>
  <g
     style="fill:#ffffff;fill-rule:nonzero"
     id="g3739">
    <path
       inkscape:connector-curvature="0"
       d="m 1054.07,422.72 3.96,-9.48 h 1.38 l 3.8,9.48 h -1.37 l -1.04,-2.4 h -4.5 l -1.02,2.4 h -1.2 z m 2.93,-3.62 h 3.62 l -1.72,-4.65 z m 9.14,3.62 h -1.2 v -6.55 h 1.2 v 1.2 c 0.17,-0.85 1.03,-1.37 1.9,-1.37 h 0.34 v 1.2 h -0.52 c -1.55,0 -1.9,0.87 -1.9,2.25 z m 4.14,-6.55 v -1.38 l 1.2,-0.35 v 1.72 h 1.55 v 1.04 h -1.55 v 4.32 c 0,0.5 0.35,0.7 0.86,0.7 h 0.7 v 1.02 h -1.73 c -0.33,0 -0.5,-0.17 -0.68,-0.34 -0.17,-0.35 -0.34,-0.35 -0.34,-1.2 v -4.67 h -1.2 v -0.86 h 1.2 z m -36.9,2.43 c 0,-1.22 0,-1.9 -1.38,-1.9 -0.7,0 -1.2,0.33 -1.2,1.02 h -1.4 c 0,-1.38 1.22,-1.9 2.6,-1.9 1.38,0 2.76,0.35 2.76,2.25 v 4.48 h -1.38 v -0.86 c -0.35,0.85 -1.2,1.2 -2.07,1.2 -1.2,0 -2.23,-0.7 -2.23,-1.9 0,-1.9 1.72,-2.4 3.27,-2.4 h 1.04 z m -1.38,1.02 c -0.7,0 -1.72,0.35 -1.72,1.2 0,0.7 0.5,1.2 1.03,1.2 h 0.18 c 1.55,0 1.73,-1.2 1.73,-2.57 l -1.2,0.17 z m 5.86,-2.59 c 0.35,-0.7 1.2,-1.2 2.07,-1.2 1.2,-0.17 2.4,0.7 2.6,2.07 v 4.82 h -1.22 v -4.13 c 0,-1.05 -0.5,-1.74 -1.54,-1.74 -0.52,0 -0.86,0.17 -1.2,0.52 -0.18,0.17 -0.53,0.52 -0.53,1.72 v 3.62 h -1.2 V 416 h 1.2 l -0.17,1.03 z m 11.38,-3.79 h 1.2 v 9.66 h -1.2 v -1.2 c -0.52,0.85 -1.38,1.37 -2.24,1.2 -1.9,0 -2.76,-1.73 -2.76,-3.45 0,-1.73 0.86,-3.45 2.93,-3.45 0.86,0 1.73,0.34 2.07,1.03 v -3.8 z m -1.9,8.8 c 1.56,0 1.9,-1.38 1.9,-2.6 0,-1.2 -0.52,-2.58 -1.9,-2.58 -1.37,0 -1.9,1.38 -1.9,2.6 0,1.2 0.53,2.57 1.9,2.57 z m 29.32,-6.21 c 1.2,0 2.58,0.5 2.58,2.07 h -1.38 c 0,-0.87 -0.52,-1.04 -1.38,-1.04 -0.86,0 -1.2,0.35 -1.2,1.04 0,0.7 1.2,0.86 1.55,0.86 1.2,0.34 2.4,0.52 2.4,2.07 0,1.55 -1.54,2.07 -2.92,2.07 -1.37,0 -2.58,-0.7 -2.58,-2.24 h 1.38 c 0,0.68 0.52,1.2 1.2,1.2 h 0.18 c 0.7,0 1.55,-0.34 1.55,-1.2 0,-1.56 -3.96,-0.35 -3.96,-2.94 0,-1.2 1.38,-1.9 2.6,-1.9 z m -230.69,3.1 c 0,2.07 -1.73,3.8 -3.8,3.8 -2.07,0 -3.8,-1.73 -3.8,-3.8 v -5.7 h 1.4 v 6.05 c 0,1.38 1.2,2.58 2.57,2.58 1.38,0 2.6,-1.2 2.6,-2.58 v -6.04 h 1.37 l -0.33,5.7 z m 3.43,-1.9 c 0.36,-0.7 1.22,-1.2 2.08,-1.2 1.2,-0.17 2.42,0.7 2.6,2.07 v 4.82 h -1.4 v -4.13 c 0,-1.05 -0.5,-1.74 -1.54,-1.74 -0.52,0 -0.86,0.17 -1.2,0.52 -0.18,0.17 -0.53,0.52 -0.53,1.72 v 3.62 h -1.2 V 416 h 1.2 v 1.03 z m 6.9,-3.79 h 1.56 v 1.38 h -1.55 v -1.38 z m 0.18,9.48 v -6.55 h 1.2 v 6.73 h -1.2 z m 5.52,0 -2.76,-6.72 h 1.38 l 2.07,5.17 2.06,-5.17 h 1.38 l -2.93,6.72 z m 6.38,-3.1 c 0,1.2 0.34,2.4 1.72,2.4 0.7,0.2 1.56,-0.33 1.56,-1.2 v -0.16 h 1.2 c -0.17,1.37 -1.55,2.4 -2.93,2.24 -2.07,0 -2.93,-1.56 -2.93,-3.45 0,-1.9 1.03,-3.62 3.1,-3.62 1.56,0 2.93,1.03 2.93,2.58 v 1.23 h -4.65 z m 3.28,-0.86 c 0,-1.04 -0.52,-1.9 -1.73,-1.9 -1.03,0 -1.72,0.7 -1.72,1.73 v 0.16 h 3.46 z m 4.48,3.96 h -1.2 v -6.55 h 1.2 v 1.2 c 0.17,-0.85 1.03,-1.37 1.9,-1.37 h 0.34 v 1.2 h -0.52 c -1.55,0 -1.9,0.87 -1.9,2.25 z m 5.86,-6.89 c 1.2,0 2.6,0.5 2.6,2.07 h -1.4 c 0,-0.87 -0.5,-1.04 -1.37,-1.04 -0.86,0 -1.2,0.35 -1.2,1.04 0,0.7 1.2,0.86 1.54,0.86 1.04,0.34 2.42,0.52 2.42,2.07 0,1.55 -1.57,2.07 -2.94,2.07 -1.38,0 -2.6,-0.7 -2.6,-2.24 h 1.4 c 0,0.68 0.5,1.2 1.2,1.2 h 0.17 c 0.7,0 1.55,-0.34 1.55,-1.2 0,-1.56 -3.97,-0.35 -3.97,-2.94 0,-1.2 1.4,-1.9 2.6,-1.9 z m 4.3,-2.59 h 1.56 v 1.38 h -1.55 v -1.38 z m 0.18,9.48 v -6.55 h 1.2 v 6.73 h -1.2 z m 3.8,-6.55 v -1.38 l 1.2,-0.35 v 1.72 h 1.55 v 1.04 h -1.55 v 4.32 c 0,0.5 0.35,0.7 0.86,0.7 h 0.7 v 1.02 h -1.73 c -0.33,0 -0.5,-0.17 -0.68,-0.34 -0.17,-0.35 -0.34,-0.35 -0.34,-1.2 v -4.67 h -1.2 v -0.86 h 1.2 z m 6.55,9.13 h -1.2 l 1.03,-2.58 -2.76,-6.55 h 1.55 l 2.07,5.17 2.07,-5.17 h 1.37 z m 13.45,-5.85 c 0,1.9 -1.56,3.27 -3.45,3.1 -1.9,0 -3.28,-1.55 -3.1,-3.45 0,-1.72 1.55,-3.1 3.27,-3.1 1.72,-0.17 3.28,1.2 3.28,2.93 0,0.17 0,0.35 0,0.52 z m -3.45,2.58 c 1.55,0 1.9,-1.2 1.9,-2.58 0,-1.38 -0.52,-2.6 -1.9,-2.6 -1.38,0 -1.9,1.22 -1.9,2.6 0,1.38 0.52,2.58 1.9,2.58 z m 5.69,0.69 v -5.7 h -1.2 v -0.85 h 1.37 v -1.2 c 0,-1.04 0.85,-1.9 1.7,-1.9 h 0.36 c 0.34,0 0.52,0 0.86,0.17 v 1.04 h -0.7 c -0.68,0 -1.02,0.17 -1.02,0.86 v 1.03 h 1.55 v 0.86 h -1.55 v 5.7 h -1.38 z m 5.68,0 3.97,-9.48 h 1.38 l 3.8,9.48 h -1.38 l -1.04,-2.4 h -4.48 l -1.04,2.4 h -1.2 z m 2.94,-3.62 h 3.62 l -1.73,-4.65 -1.9,4.65 z m 7.76,-1.72 v -1.2 h 1.2 v 1.03 c 0.35,-0.86 1.38,-1.37 2.24,-1.2 1.9,0 2.76,1.72 2.76,3.45 0.18,1.72 -1.03,3.27 -2.76,3.45 H 932 c -0.7,0 -1.38,-0.35 -1.9,-0.87 v 3.1 h -1.2 v -7.75 z m 3.27,-0.52 c -1.38,0 -1.9,1.38 -1.9,2.6 0,1.2 0.35,2.57 1.73,2.57 1.38,0 2.07,-1.37 2.07,-2.58 0,-1.2 -0.52,-2.6 -1.9,-2.6 z m 5,0.52 v -1.2 h 1.2 v 1.03 c 0.35,-0.86 1.4,-1.37 2.25,-1.2 1.9,0 2.76,1.72 2.76,3.45 0.17,1.72 -1.04,3.27 -2.76,3.45 h -0.34 c -0.7,0 -1.38,-0.35 -1.9,-0.87 v 3.1 h -1.2 v -7.75 z m 3.1,-0.52 c -1.37,0 -1.9,1.38 -1.9,2.6 0,1.2 0.35,2.57 1.73,2.57 1.38,0 2.07,-1.37 2.07,-2.58 0,-1.2 -0.34,-2.6 -1.9,-2.6 z m 5.18,5.86 v -9.48 h 1.2 v 9.48 z m 3.62,-9.48 h 1.55 v 1.38 h -1.55 z m 0.17,9.48 v -6.55 h 1.2 v 6.73 h -1.2 z m 4.48,-3.1 c 0,1.2 0.35,2.4 1.73,2.4 0.7,0.2 1.55,-0.33 1.55,-1.2 v -0.16 h 1.38 c -0.17,1.37 -1.55,2.4 -2.93,2.24 -2.07,0 -2.93,-1.56 -2.93,-3.45 0,-1.9 1.03,-3.62 3.1,-3.62 1.55,0 2.93,1.03 2.93,2.58 v 1.23 h -4.83 z m 3.28,-0.86 c 0,-1.04 -0.52,-1.9 -1.72,-1.9 -1.04,0 -1.73,0.7 -1.73,1.73 v 0.16 H 957 Z m 7.76,-5.52 h 1.2 v 9.66 h -1.2 v -1.2 c -0.52,0.85 -1.38,1.37 -2.24,1.2 -1.9,0 -2.76,-1.73 -2.76,-3.45 0,-1.73 0.86,-3.45 2.93,-3.45 0.85,0 1.7,0.34 2.06,1.03 v -3.8 z m -1.9,8.8 c 1.55,0 1.9,-1.38 1.9,-2.6 0,-1.2 -0.52,-2.58 -1.9,-2.58 -1.38,0 -1.9,1.38 -1.9,2.6 0,1.2 0.52,2.57 1.9,2.57 z m 9.48,-2.07 c 0,1.37 0.87,1.9 2.07,1.9 1.22,0 2.43,-0.35 2.43,-1.73 0,-0.86 -0.7,-1.38 -1.55,-1.55 -1.56,-0.36 -4.14,-0.7 -4.14,-2.77 0,-2.07 1.9,-2.76 3.62,-2.76 1.72,0 3.27,0.7 3.27,2.6 h -1.37 c 0,-1.05 -0.87,-1.4 -1.9,-1.4 -1.04,0 -2.24,0.35 -2.24,1.56 0,1.2 0.86,1.2 1.55,1.38 1.72,0.52 4.14,0.52 4.14,2.94 0,2.4 -1.9,2.93 -3.8,2.93 -1.88,0 -3.43,-0.86 -3.43,-2.93 l 1.37,-0.17 z m 11.38,-1.73 c 0,-0.86 -0.5,-1.38 -1.38,-1.38 -1.2,0 -1.72,1.04 -1.72,2.6 0,1.54 0.52,2.57 1.72,2.57 0.87,0 1.38,-0.5 1.38,-1.55 h 1.2 c 0,1.38 -1.2,2.42 -2.58,2.42 -2.06,0 -2.93,-1.56 -2.93,-3.45 0,-1.9 1.05,-3.62 3.12,-3.62 1.38,0 2.4,0.86 2.58,2.24 0,0 0,0 0,0.17 h -1.38 z m 2.76,-5 h 1.55 v 1.38 h -1.55 z m 0.18,9.48 v -6.55 h 1.2 v 6.73 h -1.2 z m 4.48,-3.1 c 0,1.2 0.34,2.4 1.72,2.4 0.7,0.2 1.55,-0.33 1.55,-1.2 v -0.16 h 1.4 c -0.18,1.37 -1.56,2.4 -2.94,2.24 -2.07,0 -2.93,-1.56 -2.93,-3.45 0,-1.9 1.04,-3.62 3.1,-3.62 1.56,0 2.94,1.03 2.94,2.58 v 1.23 h -4.83 z m 3.45,-0.86 c 0,-1.04 -0.53,-1.9 -1.74,-1.9 -1.03,0 -1.72,0.7 -1.72,1.73 v 0.16 h 3.45 z m 4.48,-1.73 c 0.34,-0.7 1.2,-1.2 2.07,-1.2 1.2,-0.17 2.4,0.7 2.58,2.07 v 4.82 h -1.2 v -4.13 c 0,-1.05 -0.52,-1.74 -1.55,-1.74 -0.52,0 -0.87,0.17 -1.2,0.52 -0.18,0.17 -0.53,0.52 -0.53,1.72 v 3.62 h -1.2 V 416 h 1.2 z m 10.53,1.21 c 0,-0.86 -0.53,-1.38 -1.4,-1.38 -1.2,0 -1.72,1.04 -1.72,2.6 0,1.54 0.52,2.57 1.73,2.57 0.87,0 1.4,-0.5 1.4,-1.55 h 1.2 c 0,1.38 -1.2,2.42 -2.6,2.42 -2.06,0 -2.92,-1.56 -2.92,-3.45 0,-1.9 1.03,-3.62 3.1,-3.62 1.38,0 2.4,0.86 2.6,2.24 0,0 0,0 0,0.17 h -1.4 z m 3.95,1.38 c 0,1.2 0.35,2.4 1.73,2.4 0.7,0.2 1.55,-0.33 1.55,-1.2 v -0.16 h 1.38 c -0.17,1.37 -1.54,2.4 -2.92,2.24 -2.07,0 -2.94,-1.56 -2.94,-3.45 0,-1.9 1.04,-3.62 3.1,-3.62 1.56,0 2.94,1.03 2.94,2.58 v 1.23 h -4.83 z m 3.28,-0.86 c 0,-1.04 -0.52,-1.9 -1.73,-1.9 -1.03,0 -1.72,0.7 -1.72,1.73 v 0.16 h 3.45 z m 5.51,-2.93 c 1.2,0 2.6,0.5 2.6,2.07 h -1.4 c 0,-0.87 -0.68,-1.04 -1.37,-1.04 -0.7,0 -1.2,0.35 -1.2,1.04 0,0.7 1.2,0.86 1.55,0.86 1.03,0.34 2.4,0.52 2.4,2.07 0,1.55 -1.54,2.07 -2.92,2.07 -1.38,0 -2.6,-0.7 -2.6,-2.24 h 1.4 c 0,0.68 0.5,1.2 1.2,1.2 h 0.17 c 0.7,0 1.55,-0.34 1.55,-1.2 0,-1.56 -3.96,-0.35 -3.96,-2.94 0,-1.2 1.38,-1.9 2.58,-1.9 z m -176.37,12.24 v 9.48 h -1.73 l -4.83,-8.1 v 8.1 h -1.2 v -9.48 h 1.73 l 4.66,7.93 v -7.93 z m 8.27,6.21 c 0,1.9 -1.55,3.27 -3.45,3.1 -1.9,0 -3.28,-1.55 -3.1,-3.45 0,-1.72 1.54,-3.1 3.27,-3.1 1.72,-0.17 3.27,1.2 3.27,2.93 0,0.17 0,0.34 0,0.52 z m -3.27,2.58 c 1.55,0 1.9,-1.2 1.9,-2.58 0,-1.38 -0.53,-2.6 -1.9,-2.6 -1.38,0 -1.9,1.22 -1.9,2.6 0,1.38 0.34,2.75 1.9,2.58 z m 6.2,0.86 h -1.2 V 431 h 1.2 v 1.2 c 0.17,-0.86 1.04,-1.54 1.9,-1.37 h 0.34 v 1.2 h -0.5 c -1.56,0 -1.9,0.87 -1.9,2.25 l 0.17,3.44 z m 3.8,-6.72 v -1.38 l 1.2,-0.34 V 431 h 1.55 v 1.03 h -1.55 v 4.3 c 0,0.53 0.35,0.7 0.86,0.7 h 0.7 v 0.87 H 862 c -0.34,0 -0.52,-0.18 -0.7,-0.35 -0.16,-0.34 -0.33,-0.34 -0.33,-1.2 v -4.32 h -1.2 v -0.86 z m 4.48,6.72 v -9.48 h 1.2 v 3.8 c 0.52,-0.7 1.2,-1.2 2.07,-1.04 1.2,-0.17 2.25,0.7 2.25,1.9 v 5 h -1.04 v -4.14 c 0,-1.2 -0.34,-1.9 -1.55,-1.9 -0.7,0 -1.2,0.35 -1.55,0.86 -0.17,0.52 -0.35,1.04 -0.17,1.56 v 3.44 h -1.2 z m 17.41,-6.72 -2.4,6.72 h -1.4 l -1.54,-5.5 -1.73,5.5 h -1.56 L 872,431 h 1.38 l 1.55,5.34 1.73,-5.34 h 1.9 l 1.54,5.17 1.73,-5.17 z m 2.07,3.62 c 0,1.2 0.35,2.4 1.73,2.4 0.68,0.2 1.55,-0.33 1.55,-1.2 v -0.16 h 1.4 c -0.2,1.37 -1.57,2.4 -2.94,2.24 -2.07,0 -2.94,-1.56 -2.94,-3.45 0,-1.9 0.87,-3.62 2.94,-3.62 1.55,0 2.93,1.03 2.93,2.58 v 1.23 h -4.67 z m 3.28,-0.86 c 0,-1.04 -0.5,-1.9 -1.72,-1.9 -1.03,0 -1.72,0.7 -1.72,1.73 v 0.16 h 3.45 z m 5.51,-2.93 c 1.2,0 2.6,0.5 2.6,2.07 h -1.4 c 0,-0.87 -0.68,-1.04 -1.37,-1.04 -0.7,0 -1.2,0.17 -1.2,1.04 0,0.86 1.2,0.86 1.55,0.86 1.03,0.34 2.4,0.52 2.4,2.07 0,1.55 -1.54,2.07 -2.92,2.07 -1.38,0 -2.6,-0.7 -2.6,-2.24 h 1.56 c 0,0.68 0.52,1.2 1.2,1.2 h 0.18 c 0.7,0 1.56,-0.34 1.56,-1.2 0,-1.56 -3.97,-0.35 -3.97,-2.94 -0.16,-1.2 1.22,-1.9 2.42,-1.9 z m 4.83,0.17 v -1.38 l 1.2,-0.34 V 431 h 1.56 v 1.03 h -1.54 v 4.3 c 0,0.53 0.34,0.7 0.86,0.7 h 0.7 v 0.87 h -1.73 c -0.36,0 -0.53,-0.18 -0.7,-0.35 -0.18,-0.34 -0.35,-0.34 -0.35,-1.2 v -4.32 h -1.2 v -0.86 z m 5.17,3.62 c 0,1.2 0.35,2.4 1.73,2.4 0.7,0.2 1.55,-0.33 1.55,-1.2 v -0.16 h 1.38 c -0.17,1.37 -1.55,2.4 -2.93,2.24 -2.07,0 -2.93,-1.56 -2.93,-3.45 0,-1.9 0.86,-3.62 3.1,-3.62 1.55,0 2.93,1.03 2.93,2.58 v 1.23 h -4.83 z m 3.45,-0.86 c 0,-1.04 -0.5,-1.9 -1.72,-1.9 -1.04,0 -1.73,0.7 -1.73,1.73 v 0.16 h 3.45 z m 3.97,3.96 h -1.2 V 431 h 1.2 v 1.2 c 0.17,-0.86 1.03,-1.37 1.9,-1.37 h 0.34 v 1.2 h -0.52 c -1.55,0 -1.9,0.87 -1.9,2.25 z m 5,-5.69 c 0.34,-0.7 1.2,-1.2 2.07,-1.2 1.2,-0.17 2.42,0.7 2.6,2.07 v 4.82 h -1.2 v -4.13 c 0,-1.05 -0.53,-1.74 -1.57,-1.74 -0.5,0 -0.86,0.17 -1.2,0.52 -0.17,0.17 -0.52,0.52 -0.52,1.72 v 3.62 h -1.54 V 431 h 1.2 l 0.18,1.03 z m 11.03,2.77 c 0,1.37 0.86,1.9 2.07,1.9 1.2,0 2.42,-0.36 2.42,-1.73 0,-0.87 -0.7,-1.38 -1.56,-1.56 -1.55,-0.33 -4.13,-0.68 -4.13,-2.74 0,-2.07 1.9,-2.76 3.62,-2.76 1.7,0 3.26,0.7 3.26,2.58 h -1.55 c 0,-1.03 -0.85,-1.38 -1.9,-1.38 -1.02,0 -2.23,0.35 -2.23,1.56 0,1.2 0.86,1.2 1.55,1.37 1.73,0.52 4.14,0.52 4.14,2.94 0,2.4 -1.9,2.93 -3.8,2.93 -1.9,0 -3.44,-0.87 -3.44,-2.93 z m 17.59,-3.8 -2.42,6.72 h -1.37 l -1.56,-5.5 -1.7,5.5 h -1.56 L 933.9,431 h 1.38 l 1.55,5.34 1.72,-5.34 h 1.55 l 1.56,5.17 1.72,-5.17 z m 1.04,-2.93 h 1.54 v 1.38 h -1.55 v -1.38 z m 0.17,9.65 V 431 h 1.2 v 6.72 z m 3.79,-6.72 v -1.38 l 1.2,-0.34 V 431 h 1.56 v 1.03 h -1.55 v 4.3 c 0,0.53 0.34,0.7 0.86,0.7 h 0.7 v 0.87 h -1.74 c -0.35,0 -0.52,-0.18 -0.7,-0.35 -0.17,-0.34 -0.34,-0.34 -0.34,-1.2 v -4.32 h -1.04 v -0.86 l 1.04,-0.17 z m 8.62,6.72 h -4.83 v -0.86 l 3.28,-4.83 h -3.28 v -0.86 h 4.66 v 0.86 l -3.27,4.83 h 3.45 z m 2.42,-3.1 c 0,1.2 0.34,2.4 1.72,2.4 0.7,0.2 1.55,-0.33 1.55,-1.2 v -0.16 h 1.38 c -0.17,1.37 -1.55,2.4 -2.93,2.24 -2.07,0 -2.93,-1.56 -2.93,-3.45 0,-1.9 0.85,-3.62 2.92,-3.62 1.55,0 2.93,1.03 2.93,2.58 v 1.23 h -4.66 z m 3.27,-0.86 c 0,-1.04 -0.52,-1.9 -1.73,-1.9 -1.03,0 -1.72,0.7 -1.72,1.73 v 0.16 h 3.45 z m 4.48,3.96 h -1.2 V 431 h 1.2 v 1.2 c 0.17,-0.86 1.04,-1.37 1.9,-1.37 h 0.34 v 1.2 h -0.52 c -1.56,0 -1.9,0.87 -1.9,2.25 l 0.17,3.44 z m 3.79,0 v -9.48 h 1.2 v 9.48 z m 7.42,-4.12 c 0,-1.22 0,-1.9 -1.38,-1.9 -0.7,0 -1.2,0.33 -1.2,1.02 h -1.4 c 0,-1.38 1.22,-1.9 2.6,-1.9 1.38,0 2.76,0.35 2.76,2.25 v 4.48 h -1.21 v -0.86 c -0.34,0.85 -1.2,1.2 -2.07,1.2 -1.2,0 -2.24,-0.52 -2.24,-1.9 0,-1.9 1.72,-2.4 3.28,-2.4 h 0.86 z m -1.38,0.85 c -0.7,0 -1.72,0.34 -1.72,1.2 0,0.7 0.5,1.2 1.03,1.2 h 0.16 c 1.55,0 1.73,-1.2 1.73,-2.57 l -1.22,0.17 z m 6.02,-2.42 c 0.36,-0.7 1.22,-1.2 2.08,-1.2 1.2,-0.17 2.42,0.7 2.6,2.07 v 4.82 h -1.22 v -4.13 c 0,-1.05 -0.52,-1.74 -1.55,-1.74 -0.5,0 -0.85,0.17 -1.2,0.52 -0.17,0.17 -0.5,0.52 -0.5,1.72 v 3.62 h -1.22 V 431 h 1.2 l -0.17,1.03 z m 11.22,-3.96 h 1.2 v 9.65 h -1.2 v -1.03 c -0.52,0.85 -1.38,1.37 -2.24,1.2 -1.9,0 -2.76,-1.73 -2.76,-3.45 0,-1.73 0.86,-3.45 2.93,-3.45 0.86,0 1.73,0.34 2.07,1.03 v -3.96 z m -1.9,8.96 c 1.56,0 1.9,-1.37 1.9,-2.58 0,-1.2 -0.52,-2.6 -1.9,-2.6 -1.38,0 -1.9,1.4 -1.9,2.6 0,1.2 0.52,2.58 1.9,2.58 z"
       id="Shape"
       style="fill:#ffffff" />
    <path
       inkscape:connector-curvature="0"
       id="path3735"
       d="m 766.3,401 h 1.73 v 48.97 h -1.72 z"
       style="fill:#ffffff" />
    <path
       inkscape:connector-curvature="0"
       id="path3737"
       d="m 741.14,417.2 c 1.55,-2.92 4.65,-4.65 7.93,-4.65 2.4,-0.17 4.65,0.7 6.55,2.24 1.72,2.06 2.6,4.65 2.4,7.23 v 15.52 h -9.64 v -13.62 c 0.17,-1.72 -1.2,-3.27 -3.1,-3.45 h -0.18 c -1.9,0 -3.44,1.55 -3.44,3.45 v 13.62 H 732 v -24.3 h 9.14 z m 69.31,-4.48 c -1.73,0 -3.28,1.38 -3.28,3.28 0,1.72 1.38,3.28 3.28,3.28 0.86,0 1.72,-0.35 2.4,-1.2 0.87,2.75 -3.95,17.58 -10.68,17.58 -2.24,0 -2.93,-1.73 -2.93,-4.14 0.17,-3.1 0.7,-6.2 1.73,-9.3 1.03,-3.63 1.9,-7.25 2.58,-9.15 H 797 c -0.86,3.27 -7.24,21.9 -12.76,21.9 -0.7,0 -1.38,-0.7 -1.38,-2.07 0.17,-1.38 0.52,-2.93 0.86,-4.3 l 2.07,-7.26 c 0.5,-1.55 1.03,-3.27 1.2,-5 0.17,-2.06 -1.38,-3.8 -3.45,-3.96 h -0.34 c -5.86,0 -8.27,5.17 -9.48,7.4 l 1.04,0.7 c 0.52,-0.86 3.1,-5.34 5,-5.34 0.17,0 0.52,0.34 0.52,1.2 -0.18,1.2 -0.35,2.25 -0.7,3.28 l -2.24,7.4 c -0.68,1.9 -1.03,3.8 -1.2,5.88 -0.17,2.76 1.9,5 4.65,5.17 h 0.17 c 8.44,0 12.06,-10.17 13.1,-13.1 l 0.17,0.17 c -0.52,1.72 -0.7,3.45 -0.86,5.17 0,4.5 2.07,7.77 6.38,7.77 12.58,0.17 19.48,-25.35 10.7,-25.35 z"
       style="fill:#ffffff" />
  </g>
</svg>
